<svg xmlns="http://www.w3.org/2000/svg" viewBox="0 0 1024 1024" width="200" height="200">
	<style>
		tspan { white-space:pre }
		.shp0 { fill: #4b8c92 } 
	</style>
	<path id="Layer" fill-rule="evenodd" class="shp0" d="M45.52 774.61C45.52 791.25 59.08 804.78 75.76 804.78L656.88 804.78C662.64 804.78 667.4 809.46 667.4 815.23L667.4 839.37C667.4 845 662.69 849.82 656.88 849.82L75.76 849.82C33.94 849.82 0.02 816.29 0.02 774.59L0.02 249.39C0.02 207.86 34 174.18 75.93 174.18L818.99 174.18C860.9 174.18 894.9 207.82 894.9 249.37L894.9 477.57C894.9 483.58 890.18 488.14 884.35 488.14L859.96 488.14C854.27 488.14 849.41 483.35 849.41 477.43L849.41 384.39L45.52 384.39L45.52 774.61ZM45.5 339.33L849.38 339.33L849.38 249.35C849.38 232.73 835.73 219.22 818.97 219.22L75.91 219.22C59.13 219.22 45.5 232.75 45.5 249.39L45.5 339.33Z" />
	<path id="Layer" class="shp0" d="M802.24 515.04C801.39 514.3 800.49 513.64 799.52 513.07C798.56 512.5 797.55 512.01 796.5 511.62C795.45 511.23 794.37 510.94 793.27 510.74C792.16 510.54 791.05 510.44 789.93 510.44C784.85 510.44 779.79 512.48 776.14 516.45L651.19 652.65C651.01 652.83 650.9 653.05 650.74 653.25C650.63 653.38 650.52 653.51 650.42 653.65C650.31 653.78 650.21 653.92 650.1 654.06C650 654.19 649.9 654.33 649.8 654.47C649.7 654.61 649.61 654.75 649.51 654.9C649.21 655.34 648.93 655.78 648.68 656.24C648.61 656.39 648.53 656.53 648.46 656.67C648.39 656.81 648.32 656.96 648.25 657.1C648.19 657.25 648.12 657.39 648.06 657.54C647.99 657.69 647.93 657.83 647.87 657.98C647.82 658.11 647.77 658.23 647.72 658.36C647.67 658.49 647.62 658.61 647.57 658.74C647.53 658.87 647.48 659 647.44 659.13C647.39 659.26 647.35 659.39 647.31 659.52C647.27 659.66 647.22 659.8 647.19 659.95C647.15 660.09 647.11 660.24 647.07 660.38C647.04 660.53 647 660.67 646.97 660.82C646.94 660.97 646.91 661.11 646.88 661.26C646.86 661.4 646.83 661.54 646.81 661.68C646.78 661.82 646.76 661.96 646.74 662.09C646.72 662.23 646.7 662.37 646.68 662.51C646.66 662.65 646.64 662.79 646.63 662.93C646.61 663.08 646.6 663.22 646.59 663.37C646.58 663.51 646.58 663.65 646.57 663.8C646.56 663.94 646.56 664.09 646.56 664.23C646.55 664.37 646.55 664.52 646.55 664.66C646.55 665.24 646.57 665.81 646.61 666.39C646.67 666.95 646.76 667.51 646.88 668.07C646.99 668.66 647.12 669.23 647.29 669.8C647.46 670.33 647.65 670.85 647.87 671.37C648.11 671.94 648.37 672.51 648.67 673.06C648.93 673.54 649.22 674.01 649.53 674.47C649.9 675.01 650.28 675.53 650.71 676.04C650.89 676.25 651.01 676.47 651.19 676.68L776.12 812.87C782.93 820.27 794.6 820.92 802.22 814.29C809.82 807.65 810.48 796.26 803.68 788.84L706.3 682.68L1005.5 682.68C1015.7 682.68 1023.98 674.62 1023.98 664.66C1023.98 654.72 1015.7 646.64 1005.5 646.64L900.13 646.63L706.3 646.64L803.69 540.48C810.49 533.07 809.84 521.67 802.24 515.04Z" />
</svg>