<svg xmlns="http://www.w3.org/2000/svg" viewBox="0 0 200 200" width="200" height="200">
	<style>
		tspan { white-space:pre }
		.shp0 { fill: #4b8c92 } 
	</style>
	<path id="Layer" fill-rule="evenodd" class="shp0" d="M8.89 151.29C8.89 154.54 11.54 157.18 14.8 157.18L128.29 157.18C129.41 157.18 130.34 158.09 130.34 159.22L130.34 163.94C130.34 165.04 129.42 165.98 128.29 165.98L14.79 165.98C6.62 165.98 0 159.43 0 151.29L0 48.71C0 40.6 6.64 34.02 14.83 34.02L159.95 34.02C168.14 34.02 174.78 40.58 174.78 48.7L174.78 93.28C174.78 94.45 173.86 95.34 172.72 95.34L167.96 95.34C166.85 95.34 165.9 94.41 165.9 93.25L165.9 75.08L8.89 75.08L8.89 151.29ZM8.89 66.28L165.9 66.28L165.9 48.7C165.9 45.46 163.23 42.82 159.96 42.82L14.83 42.82C11.55 42.82 8.89 45.46 8.89 48.71L8.89 66.28Z" />
	<path id="Layer" class="shp0" d="M169.59 159.04C170.26 159.62 171.11 159.94 171.99 159.94C172.98 159.94 173.97 159.54 174.68 158.77L199.08 132.17C199.11 132.13 199.14 132.09 199.17 132.05C199.26 131.95 199.34 131.84 199.41 131.73C199.47 131.64 199.52 131.56 199.57 131.47C199.63 131.36 199.68 131.25 199.73 131.13C199.77 131.03 199.81 130.93 199.84 130.83C199.87 130.72 199.9 130.6 199.92 130.49C199.94 130.38 199.96 130.27 199.97 130.16C199.98 130.05 199.98 129.93 199.98 129.82C199.98 129.71 199.98 129.6 199.97 129.48C199.96 129.37 199.94 129.26 199.92 129.15C199.9 129.04 199.87 128.92 199.84 128.81C199.81 128.71 199.77 128.61 199.73 128.5C199.68 128.39 199.63 128.28 199.57 128.17C199.52 128.07 199.46 127.98 199.4 127.89C199.33 127.79 199.25 127.68 199.17 127.58C199.14 127.54 199.11 127.49 199.08 127.45L174.68 100.85C173.35 99.4 171.07 99.28 169.58 100.57C168.1 101.87 167.97 104.09 169.3 105.54L188.32 126.27L129.88 126.27C127.89 126.27 126.27 127.84 126.27 129.79C126.27 131.73 127.89 133.31 129.88 133.31L150.46 133.31L188.32 133.31L169.3 154.04C167.98 155.52 168.1 157.74 169.59 159.04L169.59 159.04Z" />
</svg>