<?xml version="1.0"?>
<svg xmlns="http://www.w3.org/2000/svg" height="512px" viewBox="-9 0 512 512.00163" width="512px" class=""><g><path d="m464.578125 400.296875-187.40625-108.0625c-18.4375-10.628906-41.347656-10.632813-59.792969 0l-187.40625 108.0625c-28.652344 16.519531-38.472656 53.082031-21.949218 81.742187 16.484374 28.585938 53.152343 38.4375 81.742187 21.949219l157.511719-90.820312 82.253906 47.429687c3.589844 2.070313 8.175781.835938 10.246094-2.75 2.070312-3.589844.835937-8.175781-2.75-10.246094l-86.003906-49.589843c-2.320313-1.335938-5.175782-1.335938-7.492188 0l-161.257812 92.984375c-21.425782 12.351562-48.902344 4.972656-61.253907-16.449219-12.382812-21.472656-5.027343-48.875 16.449219-61.253906l187.40625-108.0625c13.816406-7.964844 30.988281-7.964844 44.804688 0l187.40625 108.0625c10.378906 5.984375 17.804687 15.648437 20.910156 27.21875 10.324218 38.449219-31.273438 70.34375-65.714844 50.484375l-47.253906-27.246094c-3.585938-2.070312-8.171875-.839844-10.242188 2.75-2.070312 3.589844-.839844 8.175781 2.75 10.246094l47.253906 27.246094c29.03125 16.738281 65.507813 6.203124 81.742188-21.953126 16.519531-28.652343 6.707031-65.21875-21.953125-81.742187zm0 0" data-original="#000000" class="active-path" data-old_color="#000000" fill="#FFFFFF"/><path d="m8.496094 314.539062c16.820312 28.140626 53.546875 37.722657 82.078125 20.671876l156.703125-93.652344 156.703125 93.652344c28.621093 17.101562 65.320312 7.359374 82.074219-20.671876 16.929687-28.328124 7.65625-65.144531-20.667969-82.074218l-101.449219-60.628906 101.449219-60.628907c28.324219-16.929687 37.597656-53.746093 20.667969-82.074219-16.929688-28.328124-53.746094-37.601562-82.074219-20.671874l-156.703125 93.652343-97.15625-58.0625c-3.554688-2.125-8.164063-.96875-10.289063 2.589844-2.125 3.554687-.964843 8.160156 2.589844 10.285156l101.007813 60.363281c2.367187 1.417969 5.324218 1.417969 7.695312 0l160.550781-95.949218c21.226563-12.6875 48.816407-5.738282 61.503907 15.488281s5.738281 48.816406-15.492188 61.503906l-112.214844 67.066407c-4.855468 2.898437-4.875 9.960937 0 12.875l112.21875 67.066406c21.226563 12.6875 28.175782 40.277344 15.488282 61.503906-12.601563 21.085938-40.121094 28.269531-61.503907 15.488281l-160.550781-95.949219c-2.371094-1.417968-5.324219-1.417968-7.695312 0l-160.550782 95.949219c-6.964844 4.164063-14.902344 6.359375-22.960937 6.359375-15.957031 0-30.371094-8.164062-38.546875-21.847656-12.683594-21.226562-5.734375-48.816406 15.492187-61.503906l112.21875-67.066406c4.851563-2.898438 4.875-9.960938 0-12.875l-112.21875-67.066407c-21.226562-12.6875-28.175781-40.277343-15.492187-61.503906 12.6875-21.226563 40.277344-28.175781 61.507812-15.488281l31.542969 18.851562c3.558594 2.125 8.160156.964844 10.285156-2.589844 2.125-3.558593.96875-8.164062-2.589843-10.289062l-31.542969-18.851562c-28.328125-16.925782-65.148438-7.65625-82.078125 20.671874-16.929688 28.328126-7.65625 65.144532 20.671875 82.074219l101.445312 60.628907-101.445312 60.628906c-28.328125 16.929687-37.601563 53.746094-20.671875 82.074218zm0 0" data-original="#000000" class="active-path" data-old_color="#000000" fill="#FFFFFF"/></g> </svg>
